<?xml version="1.0" encoding="UTF-8"?>
<!DOCTYPE svg PUBLIC "-//W3C//DTD SVG 1.1//EN" "http://www.w3.org/Graphics/SVG/1.1/DTD/svg11.dtd">
<!-- Creator: CorelDRAW 2020 (64-Bit) -->
<svg xmlns="http://www.w3.org/2000/svg" xml:space="preserve" width="29mm" height="29mm" version="1.1" style="shape-rendering:geometricPrecision; text-rendering:geometricPrecision; image-rendering:optimizeQuality; fill-rule:evenodd; clip-rule:evenodd"
viewBox="0 0 2900 2900"
 xmlns:xlink="http://www.w3.org/1999/xlink"
 xmlns:xodm="http://www.corel.com/coreldraw/odm/2003">
 <defs>
  <style type="text/css">
   <![CDATA[
    .str0 {stroke:#2B2A29;stroke-width:7.62;stroke-miterlimit:22.9256}
    .fil0 {fill:gray}
    .fil1 {fill:black;fill-rule:nonzero}
   ]]>
  </style>
 </defs>
 <g id="Layer_x0020_1">
  <metadata id="CorelCorpID_0Corel-Layer"/>
  <g id="_2300365555744">
   <rect class="fil0 str0" x="-4.04" y="8.5" width="2895.54" height="2895.54" rx="160.9" ry="200"/>
   <g>
    <path class="fil1" d="M2670.74 1523.04c35.04,-93.94 53.86,-194.04 46.64,-288.6 -2.88,-46.66 -15.29,-91.72 -37.39,-129.77 -21.87,-38.28 -53.56,-68.84 -90.43,-90.25 -38.06,-22.86 -75.45,-31.47 -120.71,-32.79 -44.67,-0.83 -90.82,4.77 -136.05,14.97 -90.79,20.14 -178.58,57.17 -259.75,105.12 -85.33,51.16 -170.84,105.21 -264.74,151.89 -47.01,23.4 -96.29,45.66 -151.23,61.72 -27.07,8.5 -56.42,14.07 -86.24,18.1 -29.83,2.94 -62.69,3.79 -91.62,0.31 -29.97,-3.32 -61.51,-8.37 -95.16,-22.36 -33.31,-13.39 -69.61,-39.33 -93.12,-74.24 -24.03,-34.7 -34.08,-71.92 -38.98,-102.99 -4.78,-31.66 -6.53,-58.44 -6.15,-89.96 1.57,-60.8 12.66,-109.79 14.87,-152.76 2.66,-42.59 -0.09,-85.17 -10.84,-118.58 -20.75,-70.58 -76.88,-122.71 -150.77,-141.91 -79.37,-20.91 -173.45,-19.89 -259.58,-1.54 -43.58,9.03 -86.23,22.64 -127.01,40.77 -41.37,18.53 -82.28,40.49 -118.27,66.08 -36.35,25.52 -68.64,54.76 -95.95,88.16 -13.82,16.56 -26.46,34.22 -38.1,52.99 -11.38,18.37 -23.22,40.16 -30.28,56.91 -30.28,75.26 -36.25,176 -11.11,250.81 11.82,34.6 38.03,66.08 72.86,88.44 34.8,22.44 77.63,36.54 120.91,40.64 44.36,3.47 94.63,1.97 140.96,-4.74 23.51,-3.34 46.7,-8.21 69.06,-14.92 23.62,-7.13 41.2,-13.74 58.59,-27.67 16.96,-13.24 31.99,-30.64 37.25,-48.43 2.59,-8.85 2.62,-17.42 -0.6,-25.83 -3.63,-9.03 -9.42,-17.45 -17.03,-22.34 -15.23,-10.86 -40.72,-7.85 -63.01,0.62 -22.66,8.66 -44.57,21.23 -64.94,35.91 17.09,-18.55 36.51,-35.2 58.97,-48.45 11.34,-6.41 23.44,-12.27 37.21,-15.26 13.48,-3.14 29.59,-3.28 44.24,3.44 14.82,6.72 25.79,18.47 33.52,31.65 8.19,13.99 10.91,31.7 8.55,47.38 -4.99,31.79 -22.37,56.12 -41.69,76.73 -10,10.22 -20.81,19.61 -33.86,27.67 -13.55,7.85 -24.5,12.95 -37.21,18.54 -24.66,10.68 -49.94,19.11 -75.53,25.88 -51.84,13.42 -102.02,21.6 -157.85,23.44 -56.75,-0.44 -113.44,-13.04 -165.83,-40.28 -52.07,-27.12 -99.39,-71.41 -126.13,-129.83 -25.21,-55.96 -33.33,-113.19 -34.44,-169.35 -0.86,-56.4 5.99,-112.4 24.73,-169.38 10.68,-30.15 21.69,-53.15 34.84,-78.47 13.14,-24.79 28.07,-49.12 44.91,-72.21 34.31,-45.83 75.48,-86.06 119.86,-119.97 44.49,-34.26 91.31,-61.89 140.41,-86.33 49.93,-24.54 102.63,-43.65 156.75,-57.07 54.15,-13.58 109.88,-19.93 165.89,-21.26 56.24,-0.83 112.31,3.6 170.64,17.99 59.9,15.67 119.15,45.31 166.47,89.91 47.84,43.9 82.84,101.2 101.54,162.1 19.22,62.55 20.63,122.06 16.98,179.17 -4.34,57.12 -14.65,106.73 -16.14,146.29 -0.9,18.57 0.36,42.05 2.83,59.96 2.4,18.33 6.92,30.48 11.52,37.19 4.52,6.81 9.91,12.28 22.82,18.15 12.66,5.58 30.87,9.99 50.53,12.77 75.48,12.67 161.08,-15.78 248.43,-55.05 87.01,-39.95 174.84,-87.15 264.82,-133.16 94.32,-48.55 195.48,-85.98 302.09,-102.25 53.36,-7.73 107.82,-10.42 163.27,-5.03 27.86,3.32 55.86,8.17 84.66,18.16 29.46,10.64 53.06,24.11 77.08,41.08 47.43,32.96 84.59,80.11 106.65,131.97 22.46,51.86 30.3,107.8 27.5,161.17 -8.19,106.25 -46.28,204.31 -101.11,288.95z"/>
    <path class="fil1" d="M2196.92 575.98c18.87,36.24 26.85,76.77 26.06,119.11 -1.22,41.95 -12.62,88.5 -44.36,128.88 -15.34,19.88 -36.63,38.05 -58.64,50.05 -20.45,11.44 -42.34,21.35 -64.59,26.95 -44.6,12.96 -88.58,13.76 -127.28,12.2 -39.13,-2.32 -73.67,-6.51 -102.97,-8.45 -14.17,-0.18 -27.56,-0.95 -39.27,0.86 -13.05,2.36 -25.9,8.23 -38.71,14.98 -51.49,28.32 -95.78,88.35 -129.45,156.43 -5.35,-38.4 -2.12,-78.2 8.48,-117.36 11.04,-38.87 30.23,-78.38 62.24,-111.02 15.7,-16.65 34.56,-30.46 55.67,-42.11 22.32,-12.84 45.62,-20.28 67.96,-25.03 44.31,-9.12 83.72,-8.31 118.33,-9.48 34.98,-0.13 65.48,-1.63 92.75,-6.2 13.86,-2.19 26.63,-5.66 39.62,-9.73 11.51,-3.44 20.63,-7.31 30.73,-14.15 19.81,-12.97 39.79,-36.15 56.6,-65.39 17.1,-29.28 31.83,-63.11 46.83,-100.54z"/>
    <path class="fil1" d="M1900.81 572.11c-64.79,19.62 -121.22,38.19 -168.23,64.33 -23.46,12.71 -43.85,27.38 -61.58,43.49 -8.66,8.29 -17.27,16.45 -24.53,25.93 -4.09,5.05 -6.7,8.08 -9.85,12.86 -3.11,4.49 -6.17,9.83 -9.22,15.27 -24.84,45.6 -45.81,103.66 -68.43,160.2 -22.5,57.3 -45.84,115.7 -76.23,174.51 -13.48,-65.04 -14.67,-129.8 -9.08,-194.33 6.33,-64.76 17.87,-128.58 49.34,-194.88 35.37,-72.91 104.94,-120.79 176.07,-136.86 35.55,-8.14 71.3,-8.94 105.41,-4.16 34.02,5.05 67.16,14.97 96.33,33.64z"/>
    <path class="fil1" d="M2175.94 1916.81c4.89,-19.25 16.76,-38.96 38.42,-50.77 10.83,-5.63 23.71,-8.37 36.42,-8.32 13.61,-0.07 22.65,3.02 34.57,6.32 21.7,6.91 48.52,23.58 59.42,55.08 10.88,31.42 1,63.06 -12.73,85.57 -14.1,23.26 -33.78,40.8 -55.91,53.96 -21.43,13.4 -49.32,20.83 -70.37,25 -45.03,8.81 -93.84,8.32 -142.87,-8.11 -48.67,-16.29 -96.09,-53.88 -122.51,-102.39 -26.48,-48.17 -35.29,-99.7 -36,-145.32 -1.66,-46.2 4.56,-87.72 8.79,-125.84 4.5,-37.9 9.28,-71.7 5.5,-93.45 -2.98,-27.27 -10.48,-46.25 -22.17,-59.35 -10.97,-13.63 -30.48,-25.72 -58.01,-33.47 -54.96,-17.3 -126.86,-14.37 -204.4,-14.5 -38.18,0.2 -76.89,0.11 -117.02,-1.08 -40.21,-2.13 -82.42,-4.07 -127.51,-18.18 -21.96,-6.7 -46.08,-19.76 -62.89,-33.97 -16.86,-14.24 -33.62,-30.72 -44.99,-51.73 -11.67,-20.75 -16.47,-44.08 -16.5,-65.08 0.65,-21.23 4.15,-40.77 9.21,-60.05 9.57,38.49 20.94,76.67 46.33,94.89 11.96,9.85 26.58,16.96 42.28,23 15.76,6.38 28.02,7.57 43.85,8.41 30.79,0.63 66.38,-5.15 102.86,-11.62 36.72,-6.33 74.71,-13.81 113.31,-19.79 19.28,-3.26 38.78,-6.17 58.35,-8.57 19,-2.74 40.05,-4.62 61.58,-6.2 42.97,-1.78 87.75,-0.83 135.47,9.88 23.62,5.09 48.28,14.19 72.49,26.18 23.95,13.13 48.41,29.11 68,51.6 40.71,43.96 59.81,101.54 65.02,150.37 1.65,11.82 2.07,26.74 1.94,39.11 -0.2,12.67 -1.04,24.37 -2.12,35.61 -2.35,22.12 -5.2,42.66 -8.71,61.74 -6.68,38.05 -12.7,72.91 -14.89,103.86 -2.15,31.12 0.27,58.02 7.9,79.26 8.03,20.66 21.1,37.82 43.59,51.16 22.35,13.02 52.39,20.89 83.87,22.22 17.19,0.33 27.67,-0.04 40.68,-4.35 12.25,-3.99 23.84,-10.83 32.3,-18.85 8.57,-8.25 12.77,-16.68 13.23,-23.12 1.27,-6.62 -4.74,-17.18 -17.68,-25.7 -14.12,-8.31 -25.92,-16.73 -40.89,-16.29 -15.29,0 -33,9.02 -47.21,22.88z"/>
    <path class="fil1" d="M1130.72 1386.28c37.89,15.52 73.56,35.71 107.95,59.43 16.91,12.16 33.38,25.37 49.12,40.46 15.81,14.97 31.21,31.51 43.55,53.15 22.79,39.83 37.42,84.05 39.13,134.06 0.5,24.76 -2.4,50.64 -10.54,75.67 -8.03,25 -21.03,48.61 -36.96,69.33 -15.24,20.76 -36.35,38.9 -53.93,52.2 -16.91,13.06 -34.11,25.38 -51.38,37.16 -34.9,23.07 -69.85,44.56 -104.6,64.48 -68.2,40.24 -138.68,77.06 -185.83,119.91 -11.78,10.85 -22.2,22.2 -31.26,33.94 -8.6,11.97 -15.8,24.26 -21.89,37 -5.13,12.44 -10.4,27.72 -11.88,38.96 -1.56,12.06 -1.9,24.33 0,36.87 6.95,49.9 54.32,102.27 100.96,107.38 24.68,3.4 54.42,-3.13 77.42,-18.61 23.14,-14.92 39.1,-39 40.04,-64.86 2.77,-25.14 -15.86,-53.57 -43.42,-57.22 -6.95,-1.41 -13.88,0.21 -21.52,2.55 -8.07,3.08 -15.72,7.66 -22.98,13.22 -14.93,10.86 -27.44,26.38 -36.83,44.31 1.27,-20.43 8.61,-40.71 20.48,-59.3 6.26,-9.05 13.81,-17.64 22.78,-24.91 9.64,-7.21 21.4,-14.09 34.59,-16.22 54.52,-10.55 106.85,34.29 117.63,87.92 5.82,26.94 3.25,54.58 -5.71,80.11 -9.14,25.5 -24.7,47.85 -43.27,66.2 -37.55,36.26 -87.82,58.45 -142.8,59.46 -27.47,0.54 -56.06,-5.4 -81.04,-15.63 -25.15,-10.38 -47.28,-25.21 -67.02,-42.41 -39.67,-34.26 -68.03,-81.05 -81.13,-133.94 -25.67,-112.06 30.57,-216.02 100.3,-279.26 34.66,-32.49 73.09,-57.04 108.9,-78.11 35.39,-21.3 72.48,-40.13 107.51,-58.21 35.16,-18.29 70.04,-35.25 103.09,-53.82 16.73,-8.98 33.05,-18.24 48.85,-27.95 15.01,-9.44 25.5,-16.21 35.55,-26.41 19.37,-19.22 32.56,-43.47 36.57,-73.77 4.75,-29.74 0,-65.08 -9.99,-97.64 -8.8,-29.86 -29.82,-63.69 -53.41,-93.88 -23.09,-31.52 -49.73,-61.38 -77.03,-91.62z"/>
    <path class="fil1" d="M1060.86 1406.69c19.41,48.43 30.81,100.96 27.65,157.58 -2.04,28.22 -8.39,57.4 -20.9,85.62 -13.08,27.76 -31.99,53.97 -54.88,74.91 -45.88,42.78 -100.93,65.76 -150.89,83.89 -50.31,17.65 -98.72,30.46 -139.27,46.57 -20.15,8.06 -38.26,16.47 -52.26,26.37 -6.97,5.15 -12.67,9.8 -18.76,15.38 -6.97,6.96 -13.74,14.01 -19.7,21.47 -12.7,14.5 -22.71,30.38 -33.62,49.15 -10.55,19 -21.33,42.43 -38.36,69.72 -9.45,13.59 -19.81,27.67 -33.54,39.95 -6.46,6.24 -14.25,11.24 -21.35,16.51 -7.75,4.45 -14.84,8.81 -23.07,12.72 -16.09,7.54 -35.88,14.22 -59.23,13.38 -23.35,-0.57 -47.41,-13.08 -60.32,-28.31 -26.26,-31.23 -28.87,-63.21 -27.56,-92.19 1.17,-14.63 4.21,-28.84 9.29,-42.2 5.61,-12.98 13.49,-26.36 25.6,-32.8 -5.28,12.25 -5.05,24.31 -3.13,36.09 1.53,11.64 4.85,22.95 9.48,33.36 8.45,20.4 23.04,39.59 34.58,42.8 5.62,1.91 7.08,-0.93 8.96,-2.76 2.03,-2 6.41,-5.14 11.77,-10.74 5.61,-5.71 10.58,-12.33 13.68,-19.01 3.68,-6.16 6.33,-14 9.28,-22.38 6.11,-17.71 11.95,-42.21 22.36,-69.22 9.93,-27.27 25.32,-55.49 43.78,-80.82 9.48,-12.57 19.81,-24.15 30.46,-35.33 5.71,-5.79 12.72,-11.84 19.14,-17.59 6.71,-5.42 13.66,-10.14 20.57,-15.12 27.96,-18.42 56.29,-30.97 83.56,-40.28 54.6,-18.38 105.27,-27.1 152.04,-37.59 46.58,-10.16 88.83,-21.96 123.06,-41.75 34.26,-19.37 60.63,-50.31 78.25,-93.15 17.55,-42.54 26.65,-92.56 33.33,-144.23z"/>
    <path class="fil1" d="M947.5 1405.86l0.21 -2.06c0.7,-0.28 -1.13,-2.34 2.79,-1.72 1.44,2.79 1.06,3.43 1.46,5.11 0.29,2.83 0.4,5.62 0.44,8.41 0.02,5.56 -0.16,11.16 -0.73,16.71 -1.35,10.98 -3.45,21.94 -6.2,32.85 -6.06,21.54 -14.9,42.63 -26.38,62.65 -23.25,39.79 -57.88,74.62 -99.06,99.14 -20.43,12.57 -42.54,22.16 -65.05,29.95 -11.36,3.83 -22.8,6.72 -34.02,9.23 -11.25,2.83 -22.63,5.2 -34.43,6.48 -46.44,6.73 -96.93,5.01 -142.72,-7.63 -46.29,-11.45 -86.27,-31.5 -121.11,-47.04 -17.66,-8.08 -33.75,-14.76 -50.07,-20.03 -8.48,-2.79 -15.74,-5.23 -22.57,-6.16 -7.06,-1.1 -14.3,-2.08 -21.63,-1.88 -58.35,0.2 -129.31,52.71 -149.17,134.58 -13.48,-41.17 -4.49,-89.88 18.62,-130.59 22.99,-40.87 63.79,-76.88 116.25,-89.83 25.17,-7.15 55.23,-6.51 78.29,-3.49 23.91,3.16 47.28,8.49 68.05,15.06 42.16,13.14 77.69,26.73 111.54,34.54 33.91,8.14 66.94,10.2 102.13,8.14 35.68,-2.74 70.56,-7.61 103.28,-19.07 32.87,-11.29 64.7,-27.9 94.3,-51.18 14.92,-11.51 29.33,-24.6 42.52,-39.41 6.88,-7.26 13.43,-15 19.44,-23.21 3.12,-4.05 6.28,-8.19 9.1,-12.51 1.41,-2.15 2.78,-4.36 3.97,-6.6 0.58,-2.99 3.99,-3.23 0.75,-0.44z"/>
    <path class="fil1" d="M719.74 1444.51c-2.06,15.27 -10.03,31.35 -23.91,42.62 -13.63,11.77 -31.12,17.51 -47.85,21.04 -33.98,6.72 -66.8,3.21 -97.95,-1.56 -62.34,-10.43 -119.86,-29.93 -175.22,-47.71 -27.58,-9.02 -54.74,-17.5 -80.6,-24.06 -25.54,-6.35 -51.24,-10.07 -67.13,-7.68 -21.12,3.17 -38.3,7.92 -53.51,22.18 -15.37,14.76 -27.2,41.7 -33.59,73.69 -20.79,-25.39 -31.64,-61.93 -20.41,-101.02 5.77,-19.24 18.08,-37.86 33.78,-51.45 15.89,-13.83 33.28,-23.3 52.21,-29.22 21.25,-6.18 40.82,-6.79 58.9,-5.82 18.11,0.93 34.95,3.61 51.05,7.26 32.22,7.02 61.8,17.26 90.42,28.07 57.11,21.8 110.03,47.99 162.47,70.28 26.17,10.95 52.28,21.01 78.12,26.1 12.9,2.23 25.63,2.68 38.21,-0.12 12.44,-3.03 24.67,-10.82 35.01,-22.6z"/>
   </g>
  </g>
 </g>
</svg>
