<?xml version="1.0" encoding="UTF-8"?>
<!DOCTYPE svg PUBLIC "-//W3C//DTD SVG 1.1//EN" "http://www.w3.org/Graphics/SVG/1.1/DTD/svg11.dtd">
<!-- Creator: CorelDRAW 2020 (64-Bit) -->
<svg xmlns="http://www.w3.org/2000/svg" xml:space="preserve" width="29mm" height="29mm" version="1.1" style="shape-rendering:geometricPrecision; text-rendering:geometricPrecision; image-rendering:optimizeQuality; fill-rule:evenodd; clip-rule:evenodd"
viewBox="0 0 2900 2900"
 xmlns:xlink="http://www.w3.org/1999/xlink"
 xmlns:xodm="http://www.corel.com/coreldraw/odm/2003">
 <defs>
  <style type="text/css">
   <![CDATA[
    .str0 {stroke:#2B2A29;stroke-width:7.62;stroke-miterlimit:22.9256}
    .fil0 {fill:fuchsia}
    .fil1 {fill:black;fill-rule:nonzero}
   ]]>
  </style>
 </defs>
 <g id="Layer_x0020_1">
  <metadata id="CorelCorpID_0Corel-Layer"/>
  <g id="_2300471928928">
   <rect class="fil0 str0" x="-4.04" y="8.5" width="2895.54" height="2895.54" rx="160.9" ry="200"/>
   <g>
    <path class="fil1" d="M2670.74 1523.04c35.04,-93.94 53.87,-194.04 46.64,-288.6 -2.88,-46.66 -15.28,-91.72 -37.39,-129.77 -21.87,-38.28 -53.56,-68.84 -90.42,-90.25 -38.07,-22.86 -75.46,-31.47 -120.71,-32.79 -44.68,-0.83 -90.82,4.77 -136.06,14.97 -90.78,20.14 -178.57,57.17 -259.75,105.12 -85.32,51.16 -170.83,105.21 -264.74,151.89 -47,23.4 -96.29,45.66 -151.23,61.72 -27.07,8.5 -56.41,14.07 -86.24,18.1 -29.82,2.94 -62.69,3.79 -91.62,0.31 -29.97,-3.32 -61.51,-8.37 -95.16,-22.36 -33.31,-13.39 -69.6,-39.33 -93.12,-74.24 -24.02,-34.7 -34.07,-71.92 -38.98,-102.99 -4.78,-31.66 -6.52,-58.44 -6.14,-89.96 1.56,-60.8 12.66,-109.79 14.86,-152.76 2.67,-42.59 -0.09,-85.17 -10.83,-118.58 -20.76,-70.58 -76.88,-122.71 -150.78,-141.91 -79.36,-20.91 -173.45,-19.89 -259.58,-1.54 -43.57,9.03 -86.22,22.64 -127.01,40.77 -41.37,18.53 -82.28,40.49 -118.27,66.08 -36.35,25.52 -68.64,54.76 -95.94,88.16 -13.83,16.56 -26.47,34.22 -38.11,52.99 -11.38,18.37 -23.22,40.16 -30.28,56.91 -30.27,75.26 -36.24,176 -11.1,250.81 11.82,34.6 38.03,66.08 72.85,88.44 34.8,22.44 77.63,36.54 120.91,40.64 44.37,3.47 94.63,1.97 140.97,-4.74 23.51,-3.34 46.69,-8.21 69.05,-14.92 23.63,-7.13 41.21,-13.74 58.59,-27.67 16.97,-13.24 32,-30.64 37.25,-48.43 2.59,-8.85 2.63,-17.42 -0.6,-25.83 -3.63,-9.03 -9.42,-17.45 -17.02,-22.34 -15.23,-10.86 -40.73,-7.85 -63.02,0.62 -22.66,8.66 -44.56,21.23 -64.94,35.91 17.09,-18.55 36.52,-35.2 58.97,-48.45 11.35,-6.41 23.44,-12.27 37.22,-15.26 13.48,-3.14 29.58,-3.28 44.23,3.44 14.83,6.72 25.79,18.47 33.53,31.65 8.19,13.99 10.9,31.7 8.55,47.38 -5,31.79 -22.38,56.12 -41.7,76.73 -10,10.22 -20.81,19.61 -33.85,27.67 -13.56,7.85 -24.5,12.95 -37.22,18.54 -24.65,10.68 -49.94,19.11 -75.53,25.88 -51.84,13.42 -102.02,21.6 -157.85,23.44 -56.74,-0.44 -113.44,-13.04 -165.82,-40.28 -52.08,-27.12 -99.4,-71.41 -126.14,-129.83 -25.2,-55.96 -33.32,-113.19 -34.43,-169.35 -0.86,-56.4 5.98,-112.4 24.73,-169.38 10.67,-30.15 21.69,-53.15 34.84,-78.47 13.13,-24.79 28.07,-49.12 44.91,-72.21 34.3,-45.83 75.48,-86.06 119.86,-119.97 44.48,-34.26 91.31,-61.89 140.41,-86.33 49.92,-24.54 102.62,-43.65 156.74,-57.07 54.16,-13.58 109.88,-19.93 165.9,-21.26 56.23,-0.83 112.3,3.6 170.63,17.99 59.9,15.67 119.15,45.31 166.47,89.91 47.84,43.9 82.85,101.2 101.54,162.1 19.23,62.55 20.63,122.06 16.98,179.17 -4.33,57.12 -14.64,106.73 -16.14,146.29 -0.89,18.57 0.37,42.05 2.83,59.96 2.41,18.33 6.93,30.48 11.52,37.19 4.53,6.81 9.91,12.28 22.83,18.15 12.65,5.58 30.86,9.99 50.52,12.77 75.48,12.67 161.08,-15.78 248.44,-55.05 87,-39.95 174.83,-87.15 264.81,-133.16 94.32,-48.55 195.48,-85.98 302.1,-102.25 53.35,-7.73 107.82,-10.42 163.27,-5.03 27.85,3.32 55.85,8.17 84.65,18.16 29.46,10.64 53.06,24.11 77.09,41.08 47.42,32.96 84.58,80.11 106.65,131.97 22.45,51.86 30.3,107.8 27.49,161.17 -8.19,106.25 -46.28,204.31 -101.11,288.95z"/>
    <path class="fil1" d="M2196.92 575.98c18.88,36.24 26.85,76.77 26.06,119.11 -1.22,41.95 -12.62,88.5 -44.35,128.88 -15.34,19.88 -36.63,38.05 -58.65,50.05 -20.45,11.44 -42.33,21.35 -64.59,26.95 -44.59,12.96 -88.57,13.76 -127.28,12.2 -39.13,-2.32 -73.67,-6.51 -102.97,-8.45 -14.17,-0.18 -27.56,-0.95 -39.27,0.86 -13.04,2.36 -25.9,8.23 -38.7,14.98 -51.5,28.32 -95.79,88.35 -129.46,156.43 -5.34,-38.4 -2.11,-78.2 8.48,-117.36 11.04,-38.87 30.23,-78.38 62.24,-111.02 15.71,-16.65 34.56,-30.46 55.67,-42.11 22.33,-12.84 45.62,-20.28 67.97,-25.03 44.3,-9.12 83.72,-8.31 118.32,-9.48 34.99,-0.13 65.48,-1.63 92.75,-6.2 13.87,-2.19 26.64,-5.66 39.62,-9.73 11.51,-3.44 20.63,-7.31 30.74,-14.15 19.81,-12.97 39.78,-36.15 56.6,-65.39 17.09,-29.28 31.83,-63.11 46.82,-100.54z"/>
    <path class="fil1" d="M1900.81 572.11c-64.78,19.62 -121.22,38.19 -168.22,64.33 -23.46,12.71 -43.86,27.38 -61.58,43.49 -8.67,8.29 -17.28,16.45 -24.54,25.93 -4.08,5.05 -6.69,8.08 -9.85,12.86 -3.1,4.49 -6.16,9.83 -9.21,15.27 -24.84,45.6 -45.82,103.66 -68.44,160.2 -22.49,57.3 -45.84,115.7 -76.22,174.51 -13.48,-65.04 -14.67,-129.8 -9.09,-194.33 6.33,-64.76 17.88,-128.58 49.34,-194.88 35.37,-72.91 104.94,-120.79 176.08,-136.86 35.55,-8.14 71.3,-8.94 105.41,-4.16 34.01,5.05 67.16,14.97 96.32,33.64z"/>
    <path class="fil1" d="M2175.94 1916.81c4.89,-19.25 16.77,-38.96 38.42,-50.77 10.83,-5.63 23.71,-8.37 36.43,-8.32 13.6,-0.07 22.65,3.02 34.56,6.32 21.71,6.91 48.52,23.58 59.43,55.08 10.87,31.42 1,63.06 -12.73,85.57 -14.1,23.26 -33.79,40.8 -55.91,53.96 -21.43,13.4 -49.32,20.83 -70.37,25 -45.04,8.81 -93.85,8.32 -142.88,-8.11 -48.67,-16.29 -96.09,-53.88 -122.51,-102.39 -26.48,-48.17 -35.29,-99.7 -36,-145.32 -1.66,-46.2 4.56,-87.72 8.79,-125.84 4.51,-37.9 9.29,-71.7 5.51,-93.45 -2.99,-27.27 -10.49,-46.25 -22.18,-59.35 -10.96,-13.63 -30.48,-25.72 -58.01,-33.47 -54.95,-17.3 -126.85,-14.37 -204.4,-14.5 -38.18,0.2 -76.88,0.11 -117.01,-1.08 -40.22,-2.13 -82.43,-4.07 -127.52,-18.18 -21.96,-6.7 -46.08,-19.76 -62.89,-33.97 -16.86,-14.24 -33.62,-30.72 -44.98,-51.73 -11.67,-20.75 -16.47,-44.08 -16.51,-65.08 0.66,-21.23 4.16,-40.77 9.21,-60.05 9.58,38.49 20.94,76.67 46.33,94.89 11.97,9.85 26.58,16.96 42.28,23 15.76,6.38 28.02,7.57 43.85,8.41 30.79,0.63 66.38,-5.15 102.86,-11.62 36.72,-6.33 74.71,-13.81 113.31,-19.79 19.28,-3.26 38.78,-6.17 58.35,-8.57 19.01,-2.74 40.06,-4.62 61.58,-6.2 42.98,-1.78 87.76,-0.83 135.48,9.88 23.61,5.09 48.28,14.19 72.48,26.18 23.95,13.13 48.41,29.11 68,51.6 40.72,43.96 59.81,101.54 65.03,150.37 1.64,11.82 2.06,26.74 1.93,39.11 -0.2,12.67 -1.04,24.37 -2.11,35.61 -2.35,22.12 -5.2,42.66 -8.72,61.74 -6.68,38.05 -12.7,72.91 -14.89,103.86 -2.15,31.12 0.28,58.02 7.9,79.26 8.03,20.66 21.11,37.82 43.6,51.16 22.34,13.02 52.39,20.89 83.86,22.22 17.19,0.33 27.68,-0.04 40.68,-4.35 12.26,-3.99 23.84,-10.83 32.31,-18.85 8.57,-8.25 12.77,-16.68 13.22,-23.12 1.28,-6.62 -4.74,-17.18 -17.68,-25.7 -14.11,-8.31 -25.92,-16.73 -40.89,-16.29 -15.28,0 -33,9.02 -47.21,22.88z"/>
    <path class="fil1" d="M1130.72 1386.28c37.89,15.52 73.57,35.71 107.95,59.43 16.91,12.16 33.38,25.37 49.12,40.46 15.82,14.97 31.21,31.51 43.56,53.15 22.79,39.83 37.41,84.05 39.12,134.06 0.5,24.76 -2.4,50.64 -10.54,75.67 -8.02,25 -21.03,48.61 -36.95,69.33 -15.25,20.76 -36.36,38.9 -53.94,52.2 -16.91,13.06 -34.11,25.38 -51.38,37.16 -34.9,23.07 -69.84,44.56 -104.6,64.48 -68.19,40.24 -138.67,77.06 -185.83,119.91 -11.78,10.85 -22.2,22.2 -31.26,33.94 -8.59,11.97 -15.8,24.26 -21.89,37 -5.13,12.44 -10.39,27.72 -11.87,38.96 -1.57,12.06 -1.9,24.33 0,36.87 6.95,49.9 54.32,102.27 100.96,107.38 24.67,3.4 54.41,-3.13 77.41,-18.61 23.15,-14.92 39.11,-39 40.04,-64.86 2.77,-25.14 -15.85,-53.57 -43.42,-57.22 -6.95,-1.41 -13.87,0.21 -21.52,2.55 -8.06,3.08 -15.72,7.66 -22.98,13.22 -14.92,10.86 -27.43,26.38 -36.83,44.31 1.28,-20.43 8.61,-40.71 20.49,-59.3 6.25,-9.05 13.8,-17.64 22.78,-24.91 9.63,-7.21 21.39,-14.09 34.58,-16.22 54.52,-10.55 106.85,34.29 117.63,87.92 5.82,26.94 3.25,54.58 -5.71,80.11 -9.13,25.5 -24.7,47.85 -43.26,66.2 -37.56,36.26 -87.83,58.45 -142.81,59.46 -27.47,0.54 -56.05,-5.4 -81.04,-15.63 -25.15,-10.38 -47.28,-25.21 -67.02,-42.41 -39.67,-34.26 -68.03,-81.05 -81.13,-133.94 -25.66,-112.06 30.57,-216.02 100.31,-279.26 34.65,-32.49 73.09,-57.04 108.89,-78.11 35.39,-21.3 72.49,-40.13 107.51,-58.21 35.17,-18.29 70.04,-35.25 103.1,-53.82 16.72,-8.98 33.05,-18.24 48.84,-27.95 15.01,-9.44 25.51,-16.21 35.56,-26.41 19.37,-19.22 32.56,-43.47 36.57,-73.77 4.74,-29.74 0,-65.08 -10,-97.64 -8.79,-29.86 -29.82,-63.69 -53.41,-93.88 -23.09,-31.52 -49.72,-61.38 -77.03,-91.62z"/>
    <path class="fil1" d="M1060.86 1406.69c19.41,48.43 30.81,100.96 27.66,157.58 -2.05,28.22 -8.39,57.4 -20.9,85.62 -13.09,27.76 -32,53.97 -54.89,74.91 -45.88,42.78 -100.93,65.76 -150.89,83.89 -50.3,17.65 -98.72,30.46 -139.26,46.57 -20.16,8.06 -38.27,16.47 -52.26,26.37 -6.97,5.15 -12.68,9.8 -18.77,15.38 -6.97,6.96 -13.73,14.01 -19.7,21.47 -12.69,14.5 -22.71,30.38 -33.62,49.15 -10.54,19 -21.32,42.43 -38.36,69.72 -9.45,13.59 -19.81,27.67 -33.54,39.95 -6.46,6.24 -14.25,11.24 -21.34,16.51 -7.76,4.45 -14.85,8.81 -23.08,12.72 -16.09,7.54 -35.87,14.22 -59.22,13.38 -23.35,-0.57 -47.41,-13.08 -60.32,-28.31 -26.27,-31.23 -28.88,-63.21 -27.57,-92.19 1.17,-14.63 4.22,-28.84 9.29,-42.2 5.61,-12.98 13.49,-26.36 25.61,-32.8 -5.29,12.25 -5.05,24.31 -3.14,36.09 1.53,11.64 4.85,22.95 9.48,33.36 8.45,20.4 23.04,39.59 34.59,42.8 5.62,1.91 7.08,-0.93 8.95,-2.76 2.03,-2 6.41,-5.14 11.77,-10.74 5.62,-5.71 10.58,-12.33 13.68,-19.01 3.68,-6.16 6.33,-14 9.28,-22.38 6.12,-17.71 11.95,-42.21 22.37,-69.22 9.92,-27.27 25.32,-55.49 43.78,-80.82 9.48,-12.57 19.8,-24.15 30.46,-35.33 5.7,-5.79 12.71,-11.84 19.13,-17.59 6.71,-5.42 13.66,-10.14 20.57,-15.12 27.97,-18.42 56.3,-30.97 83.57,-40.28 54.59,-18.38 105.26,-27.1 152.03,-37.59 46.59,-10.16 88.83,-21.96 123.07,-41.75 34.25,-19.37 60.63,-50.31 78.25,-93.15 17.55,-42.54 26.65,-92.56 33.32,-144.23z"/>
    <path class="fil1" d="M947.5 1405.86l0.22 -2.06c0.69,-0.28 -1.14,-2.34 2.79,-1.72 1.44,2.79 1.05,3.43 1.46,5.11 0.29,2.83 0.39,5.62 0.43,8.41 0.02,5.56 -0.16,11.16 -0.73,16.71 -1.35,10.98 -3.44,21.94 -6.2,32.85 -6.05,21.54 -14.9,42.63 -26.37,62.65 -23.26,39.79 -57.88,74.62 -99.07,99.14 -20.43,12.57 -42.53,22.16 -65.04,29.95 -11.36,3.83 -22.8,6.72 -34.02,9.23 -11.26,2.83 -22.64,5.2 -34.44,6.48 -46.44,6.73 -96.93,5.01 -142.71,-7.63 -46.3,-11.45 -86.28,-31.5 -121.12,-47.04 -17.66,-8.08 -33.75,-14.76 -50.07,-20.03 -8.48,-2.79 -15.74,-5.23 -22.56,-6.16 -7.06,-1.1 -14.31,-2.08 -21.64,-1.88 -58.35,0.2 -129.3,52.71 -149.17,134.58 -13.48,-41.17 -4.48,-89.88 18.63,-130.59 22.98,-40.87 63.79,-76.88 116.24,-89.83 25.18,-7.15 55.24,-6.51 78.29,-3.49 23.92,3.16 47.28,8.49 68.06,15.06 42.15,13.14 77.68,26.73 111.54,34.54 33.9,8.14 66.94,10.2 102.12,8.14 35.69,-2.74 70.56,-7.61 103.29,-19.07 32.86,-11.29 64.69,-27.9 94.3,-51.18 14.92,-11.51 29.33,-24.6 42.51,-39.41 6.88,-7.26 13.43,-15 19.45,-23.21 3.12,-4.05 6.28,-8.19 9.1,-12.51 1.41,-2.15 2.78,-4.36 3.96,-6.6 0.58,-2.99 3.99,-3.23 0.75,-0.44z"/>
    <path class="fil1" d="M719.74 1444.51c-2.06,15.27 -10.03,31.35 -23.91,42.62 -13.62,11.77 -31.12,17.51 -47.84,21.04 -33.99,6.72 -66.8,3.21 -97.95,-1.56 -62.35,-10.43 -119.87,-29.93 -175.22,-47.71 -27.58,-9.02 -54.74,-17.5 -80.61,-24.06 -25.53,-6.35 -51.24,-10.07 -67.12,-7.68 -21.13,3.17 -38.31,7.92 -53.52,22.18 -15.36,14.76 -27.2,41.7 -33.58,73.69 -20.8,-25.39 -31.65,-61.93 -20.42,-101.02 5.77,-19.24 18.09,-37.86 33.79,-51.45 15.89,-13.83 33.27,-23.3 52.2,-29.22 21.25,-6.18 40.83,-6.79 58.9,-5.82 18.12,0.93 34.95,3.61 51.06,7.26 32.21,7.02 61.79,17.26 90.41,28.07 57.12,21.8 110.03,47.99 162.47,70.28 26.18,10.95 52.28,21.01 78.12,26.1 12.9,2.23 25.63,2.68 38.22,-0.12 12.44,-3.03 24.66,-10.82 35,-22.6z"/>
   </g>
  </g>
 </g>
</svg>
